<?xml version="1.0" encoding="UTF-8"?>
<!DOCTYPE svg PUBLIC "-//W3C//DTD SVG 1.1//EN" "http://www.w3.org/Graphics/SVG/1.1/DTD/svg11.dtd">
<svg xmlns="http://www.w3.org/2000/svg" version="1.1" width="500px" height="500px" style="shape-rendering:geometricPrecision; text-rendering:geometricPrecision; image-rendering:optimizeQuality; fill-rule:evenodd; clip-rule:evenodd" xmlns:xlink="http://www.w3.org/1999/xlink">
<g><path style="opacity:1" fill="#fffefe" d="M -0.5,-0.5 C 166.167,-0.5 332.833,-0.5 499.5,-0.5C 499.5,166.167 499.5,332.833 499.5,499.5C 332.833,499.5 166.167,499.5 -0.5,499.5C -0.5,332.833 -0.5,166.167 -0.5,-0.5 Z"/></g>
<g><path style="opacity:1" fill="#ff984f" d="M 232.5,141.5 C 229.529,139.397 226.363,137.397 223,135.5C 221.434,136.061 220.101,135.394 219,133.5C 218.667,133.833 218.333,134.167 218,134.5C 213.622,132.214 210.122,129.214 207.5,125.5C 210.827,118.338 215.16,111.838 220.5,106C 230.576,100.961 238.076,103.461 243,113.5C 243.667,116.833 243.667,120.167 243,123.5C 239.672,129.647 236.172,135.647 232.5,141.5 Z"/></g>
<g><path style="opacity:1" fill="#ffa050" d="M 207.5,125.5 C 210.122,129.214 213.622,132.214 218,134.5C 218.333,134.167 218.667,133.833 219,133.5C 220.101,135.394 221.434,136.061 223,135.5C 226.363,137.397 229.529,139.397 232.5,141.5C 229.248,146.334 226.248,151.334 223.5,156.5C 221.629,156.141 220.129,155.141 219,153.5C 218.667,153.833 218.333,154.167 218,154.5C 214.333,151.5 210.667,148.5 207,145.5C 205.434,146.061 204.101,145.394 203,143.5C 201.042,143.791 199.542,142.791 198.5,140.5C 201.11,135.233 204.11,130.233 207.5,125.5 Z"/></g>
<g><path style="opacity:1" fill="#ffd45a" d="M 278.5,137.5 C 274.317,138.801 270.484,141.135 267,144.5C 266.667,144.167 266.333,143.833 266,143.5C 261.41,146.694 257.243,149.694 253.5,152.5C 246.293,144.089 246.96,136.256 255.5,129C 266.018,124.227 273.685,127.061 278.5,137.5 Z"/></g>
<g><path style="opacity:1" fill="#ffcb57" d="M 278.5,137.5 C 279.737,138.965 280.737,140.632 281.5,142.5C 281.489,144.017 280.823,145.184 279.5,146C 276.898,146.883 274.731,148.383 273,150.5C 272.667,150.167 272.333,149.833 272,149.5C 268.883,150.997 265.883,153.33 263,156.5C 262.667,156.167 262.333,155.833 262,155.5C 260.736,157.607 258.903,158.607 256.5,158.5C 254.975,156.784 253.975,154.784 253.5,152.5C 257.243,149.694 261.41,146.694 266,143.5C 266.333,143.833 266.667,144.167 267,144.5C 270.484,141.135 274.317,138.801 278.5,137.5 Z"/></g>
<g><path style="opacity:1" fill="#ffa651" d="M 198.5,140.5 C 199.542,142.791 201.042,143.791 203,143.5C 204.101,145.394 205.434,146.061 207,145.5C 210.667,148.5 214.333,151.5 218,154.5C 218.333,154.167 218.667,153.833 219,153.5C 220.129,155.141 221.629,156.141 223.5,156.5C 220.486,161.203 217.486,165.87 214.5,170.5C 213.603,169.402 212.77,169.402 212,170.5C 210.899,168.606 209.566,167.939 208,168.5C 204.333,165.5 200.667,162.5 197,159.5C 195.434,160.061 194.101,159.394 193,157.5C 192.086,158.654 191.253,158.487 190.5,157C 191.171,156.014 191.171,154.847 190.5,153.5C 192.93,148.963 195.597,144.63 198.5,140.5 Z"/></g>
<g><path style="opacity:1" fill="#ffc055" d="M 281.5,142.5 C 284.669,146.833 287.336,151.5 289.5,156.5C 281.071,161.769 272.738,166.769 264.5,171.5C 261.597,167.37 258.93,163.037 256.5,158.5C 258.903,158.607 260.736,157.607 262,155.5C 262.333,155.833 262.667,156.167 263,156.5C 265.883,153.33 268.883,150.997 272,149.5C 272.333,149.833 272.667,150.167 273,150.5C 274.731,148.383 276.898,146.883 279.5,146C 280.823,145.184 281.489,144.017 281.5,142.5 Z"/></g>
<g><path style="opacity:1" fill="#ffac52" d="M 190.5,153.5 C 191.171,154.847 191.171,156.014 190.5,157C 191.253,158.487 192.086,158.654 193,157.5C 194.101,159.394 195.434,160.061 197,159.5C 200.667,162.5 204.333,165.5 208,168.5C 209.566,167.939 210.899,168.606 212,170.5C 212.77,169.402 213.603,169.402 214.5,170.5C 211.664,176.178 208.331,181.511 204.5,186.5C 203.9,183.375 202.733,183.042 201,185.5C 199,183.5 197,181.5 195,179.5C 192.925,182.028 192.092,181.861 192.5,179C 189.689,178.277 187.189,176.444 185,173.5C 184.667,173.833 184.333,174.167 184,174.5C 183.344,170.998 182.011,170.998 180,174.5C 179.617,173.944 179.117,173.611 178.5,173.5C 182.137,166.549 186.137,159.882 190.5,153.5 Z"/></g>
<g><path style="opacity:1" fill="#ffb453" d="M 289.5,156.5 C 292.486,161.13 295.486,165.797 298.5,170.5C 296.194,169.215 294.361,169.882 293,172.5C 290.908,172.929 288.908,174.262 287,176.5C 285.434,175.939 284.101,176.606 283,178.5C 282.667,178.167 282.333,177.833 282,177.5C 281.082,179.632 279.749,180.299 278,179.5C 276.296,181.373 274.463,183.04 272.5,184.5C 269.095,180.705 266.429,176.372 264.5,171.5C 272.738,166.769 281.071,161.769 289.5,156.5 Z"/></g>
<g><path style="opacity:1" fill="#ff9950" d="M 240.5,185.5 C 237.529,183.397 234.363,181.397 231,179.5C 229.434,180.061 228.101,179.394 227,177.5C 225.421,178.172 224.254,177.505 223.5,175.5C 225.685,170.314 228.685,165.647 232.5,161.5C 238.703,158.004 243.537,159.337 247,165.5C 247.738,169.261 247.405,172.928 246,176.5C 244.156,179.528 242.322,182.528 240.5,185.5 Z"/></g>
<g><path style="opacity:1" fill="#ffb253" d="M 204.5,186.5 C 202.019,192.13 199.019,197.463 195.5,202.5C 194.153,201.829 192.986,201.829 192,202.5C 190.899,200.606 189.566,199.939 188,200.5C 184.333,197.5 180.667,194.5 177,191.5C 175.434,192.061 174.101,191.394 173,189.5C 172.667,189.833 172.333,190.167 172,190.5C 171.768,189.263 171.268,188.263 170.5,187.5C 172.664,182.5 175.331,177.833 178.5,173.5C 179.117,173.611 179.617,173.944 180,174.5C 182.011,170.998 183.344,170.998 184,174.5C 184.333,174.167 184.667,173.833 185,173.5C 187.189,176.444 189.689,178.277 192.5,179C 192.092,181.861 192.925,182.028 195,179.5C 197,181.5 199,183.5 201,185.5C 202.733,183.042 203.9,183.375 204.5,186.5 Z"/></g>
<g><path style="opacity:1" fill="#ffa851" d="M 298.5,170.5 C 300.766,174.034 302.766,177.7 304.5,181.5C 303.206,182.29 302.039,183.29 301,184.5C 300.667,184.167 300.333,183.833 300,183.5C 298.092,185.738 296.092,187.071 294,187.5C 292.899,189.394 291.566,190.061 290,189.5C 286.431,192.516 282.931,194.849 279.5,196.5C 276.665,192.836 274.332,188.836 272.5,184.5C 274.463,183.04 276.296,181.373 278,179.5C 279.749,180.299 281.082,179.632 282,177.5C 282.333,177.833 282.667,178.167 283,178.5C 284.101,176.606 285.434,175.939 287,176.5C 288.908,174.262 290.908,172.929 293,172.5C 294.361,169.882 296.194,169.215 298.5,170.5 Z"/></g>
<g><path style="opacity:1" fill="#ffa451" d="M 223.5,175.5 C 224.254,177.505 225.421,178.172 227,177.5C 228.101,179.394 229.434,180.061 231,179.5C 234.363,181.397 237.529,183.397 240.5,185.5C 236.5,192.167 232.5,198.833 228.5,205.5C 226.983,205.489 225.816,204.823 225,203.5C 224.667,203.833 224.333,204.167 224,204.5C 222.333,202.833 220.667,201.167 219,199.5C 217.434,200.061 216.101,199.394 215,197.5C 213.421,198.172 212.254,197.505 211.5,195.5C 215.137,188.549 219.137,181.882 223.5,175.5 Z"/></g>
<g><path style="opacity:1" fill="#ffb954" d="M 170.5,187.5 C 171.268,188.263 171.768,189.263 172,190.5C 172.333,190.167 172.667,189.833 173,189.5C 174.101,191.394 175.434,192.061 177,191.5C 180.667,194.5 184.333,197.5 188,200.5C 189.566,199.939 190.899,200.606 192,202.5C 192.986,201.829 194.153,201.829 195.5,202.5C 192.752,207.666 189.752,212.666 186.5,217.5C 183.657,216.83 181.157,215.497 179,213.5C 178.667,213.833 178.333,214.167 178,214.5C 175.319,211.077 172.319,208.744 169,207.5C 168.667,207.833 168.333,208.167 168,208.5C 165.166,205.872 162.999,203.539 161.5,201.5C 164.015,196.457 167.015,191.79 170.5,187.5 Z"/></g>
<g><path style="opacity:1" fill="#ff9b50" d="M 304.5,181.5 C 311.146,189.594 311.146,197.761 304.5,206C 292.603,211.706 284.27,208.539 279.5,196.5C 282.931,194.849 286.431,192.516 290,189.5C 291.566,190.061 292.899,189.394 294,187.5C 296.092,187.071 298.092,185.738 300,183.5C 300.333,183.833 300.667,184.167 301,184.5C 302.039,183.29 303.206,182.29 304.5,181.5 Z"/></g>
<g><path style="opacity:1" fill="#ffbf55" d="M 161.5,201.5 C 162.999,203.539 165.166,205.872 168,208.5C 168.333,208.167 168.667,207.833 169,207.5C 172.319,208.744 175.319,211.077 178,214.5C 178.333,214.167 178.667,213.833 179,213.5C 181.157,215.497 183.657,216.83 186.5,217.5C 183.528,223.122 180.195,228.455 176.5,233.5C 175.458,231.209 173.958,230.209 172,230.5C 170.899,228.606 169.566,227.939 168,228.5C 166.333,226.833 164.667,225.167 163,223.5C 161.434,224.061 160.101,223.394 159,221.5C 158.667,221.833 158.333,222.167 158,222.5C 156.333,220.833 154.667,219.167 153,217.5C 152.617,218.056 152.117,218.389 151.5,218.5C 154.585,212.661 157.918,206.994 161.5,201.5 Z"/></g>
<g><path style="opacity:1" fill="#ffb053" d="M 211.5,195.5 C 212.254,197.505 213.421,198.172 215,197.5C 216.101,199.394 217.434,200.061 219,199.5C 220.667,201.167 222.333,202.833 224,204.5C 224.333,204.167 224.667,203.833 225,203.5C 225.816,204.823 226.983,205.489 228.5,205.5C 226.167,209.5 223.833,213.5 221.5,217.5C 221.5,217.833 221.5,218.167 221.5,218.5C 219.265,221.291 217.265,224.291 215.5,227.5C 213.033,227.142 210.866,225.809 209,223.5C 208.667,223.833 208.333,224.167 208,224.5C 206.333,222.833 204.667,221.167 203,219.5C 202.667,219.833 202.333,220.167 202,220.5C 200.117,219.347 199.284,217.681 199.5,215.5C 203.137,208.549 207.137,201.882 211.5,195.5 Z"/></g>
<g><path style="opacity:1" fill="#ff9951" d="M 249.5,213.5 C 257.942,213.78 261.442,218.113 260,226.5C 258.809,229.534 256.642,231.201 253.5,231.5C 252.08,225.612 250.747,219.612 249.5,213.5 Z"/></g>
<g><path style="opacity:1" fill="#ffa451" d="M 249.5,213.5 C 250.747,219.612 252.08,225.612 253.5,231.5C 250.493,233.175 247.16,233.841 243.5,233.5C 242.743,226.504 241.743,220.17 240.5,214.5C 243.43,213.701 246.43,213.368 249.5,213.5 Z"/></g>
<g><path style="opacity:1" fill="#ffb053" d="M 240.5,214.5 C 241.743,220.17 242.743,226.504 243.5,233.5C 240.546,234.271 237.546,234.938 234.5,235.5C 233.167,229.167 231.833,222.833 230.5,216.5C 233.627,215.419 236.96,214.753 240.5,214.5 Z"/></g>
<g><path style="opacity:1" fill="#ffc456" d="M 176.5,233.5 C 173.89,238.767 170.89,243.767 167.5,248.5C 166.746,246.495 165.579,245.828 164,246.5C 163.667,245.5 163.333,244.5 163,243.5C 161.434,244.061 160.101,243.394 159,241.5C 157.434,242.061 156.101,241.394 155,239.5C 153.434,240.061 152.101,239.394 151,237.5C 150.667,237.833 150.333,238.167 150,238.5C 147.61,235.523 145.11,233.523 142.5,232.5C 145.514,227.797 148.514,223.13 151.5,218.5C 152.117,218.389 152.617,218.056 153,217.5C 154.667,219.167 156.333,220.833 158,222.5C 158.333,222.167 158.667,221.833 159,221.5C 160.101,223.394 161.434,224.061 163,223.5C 164.667,225.167 166.333,226.833 168,228.5C 169.566,227.939 170.899,228.606 172,230.5C 173.958,230.209 175.458,231.209 176.5,233.5 Z"/></g>
<g><path style="opacity:1" fill="#ffbc54" d="M 230.5,216.5 C 231.833,222.833 233.167,229.167 234.5,235.5C 231.193,236.051 227.86,236.384 224.5,236.5C 223.836,230.132 222.836,224.132 221.5,218.5C 221.5,218.167 221.5,217.833 221.5,217.5C 224.455,216.841 227.455,216.508 230.5,216.5 Z"/></g>
<g><path style="opacity:1" fill="#ffbc54" d="M 199.5,215.5 C 199.284,217.681 200.117,219.347 202,220.5C 202.333,220.167 202.667,219.833 203,219.5C 204.667,221.167 206.333,222.833 208,224.5C 208.333,224.167 208.667,223.833 209,223.5C 210.866,225.809 213.033,227.142 215.5,227.5C 211.595,234.307 207.428,240.973 203,247.5C 200.705,247.311 198.705,245.977 197,243.5C 195.434,244.061 194.101,243.394 193,241.5C 192.667,241.833 192.333,242.167 192,242.5C 191.667,241.5 191.333,240.5 191,239.5C 190.667,239.833 190.333,240.167 190,240.5C 188.961,239.29 187.794,238.29 186.5,237.5C 190.848,230.131 195.181,222.798 199.5,215.5 Z"/></g>
<g><path style="opacity:1" fill="#ffcb57" d="M 142.5,232.5 C 145.11,233.523 147.61,235.523 150,238.5C 150.333,238.167 150.667,237.833 151,237.5C 152.101,239.394 153.434,240.061 155,239.5C 156.101,241.394 157.434,242.061 159,241.5C 160.101,243.394 161.434,244.061 163,243.5C 163.333,244.5 163.667,245.5 164,246.5C 165.579,245.828 166.746,246.495 167.5,248.5C 164.89,253.767 161.89,258.767 158.5,263.5C 156.194,264.785 154.361,264.118 153,261.5C 152.667,261.833 152.333,262.167 152,262.5C 150.333,260.833 148.667,259.167 147,257.5C 145.434,258.061 144.101,257.394 143,255.5C 142.667,255.833 142.333,256.167 142,256.5C 140.333,254.833 138.667,253.167 137,251.5C 136.667,251.833 136.333,252.167 136,252.5C 134.961,251.29 133.794,250.29 132.5,249.5C 135.833,243.833 139.167,238.167 142.5,232.5 Z"/></g>
<g><path style="opacity:1" fill="#ffc756" d="M 221.5,218.5 C 222.836,224.132 223.836,230.132 224.5,236.5C 221.689,237.475 218.689,238.142 215.5,238.5C 215.995,242.647 216.995,246.647 218.5,250.5C 217.85,250.196 217.183,249.863 216.5,249.5C 212.261,250.982 207.927,252.148 203.5,253C 201.934,253.608 200.6,254.442 199.5,255.5C 195.919,260.328 192.585,265.328 189.5,270.5C 188.134,268.729 186.634,267.062 185,265.5C 183.434,266.061 182.101,265.394 181,263.5C 179.434,264.061 178.101,263.394 177,261.5C 176.667,261.833 176.333,262.167 176,262.5C 175.764,260.881 174.931,259.881 173.5,259.5C 177.333,251.829 181.666,244.496 186.5,237.5C 187.794,238.29 188.961,239.29 190,240.5C 190.333,240.167 190.667,239.833 191,239.5C 191.333,240.5 191.667,241.5 192,242.5C 192.333,242.167 192.667,241.833 193,241.5C 194.101,243.394 195.434,244.061 197,243.5C 198.705,245.977 200.705,247.311 203,247.5C 207.428,240.973 211.595,234.307 215.5,227.5C 217.265,224.291 219.265,221.291 221.5,218.5 Z"/></g>
<g><path style="opacity:1" fill="#ffd258" d="M 132.5,249.5 C 133.794,250.29 134.961,251.29 136,252.5C 136.333,252.167 136.667,251.833 137,251.5C 138.667,253.167 140.333,254.833 142,256.5C 142.333,256.167 142.667,255.833 143,255.5C 144.101,257.394 145.434,258.061 147,257.5C 148.667,259.167 150.333,260.833 152,262.5C 152.333,262.167 152.667,261.833 153,261.5C 154.361,264.118 156.194,264.785 158.5,263.5C 154.863,270.451 150.863,277.118 146.5,283.5C 144.255,280.749 141.755,278.083 139,275.5C 137.915,277.657 136.749,277.824 135.5,276C 135.833,275 136.167,274 136.5,273C 135.251,271.176 134.085,271.343 133,273.5C 131,271.5 129,269.5 127,267.5C 126.333,268.167 125.667,268.833 125,269.5C 124.184,268.177 123.017,267.511 121.5,267.5C 125.181,261.464 128.848,255.464 132.5,249.5 Z"/></g>
<g><path style="opacity:1" fill="#ffbb56" d="M 218.5,250.5 C 219.167,253.167 219.833,255.833 220.5,258.5C 215.937,258.728 211.437,260.062 207,262.5C 206.667,262.167 206.333,261.833 206,261.5C 204.122,262.053 202.622,263.053 201.5,264.5C 200.343,261.727 199.676,258.727 199.5,255.5C 200.6,254.442 201.934,253.608 203.5,253C 207.927,252.148 212.261,250.982 216.5,249.5C 217.183,249.863 217.85,250.196 218.5,250.5 Z"/></g>
<g><path style="opacity:1" fill="#ffd258" d="M 173.5,259.5 C 174.931,259.881 175.764,260.881 176,262.5C 176.333,262.167 176.667,261.833 177,261.5C 178.101,263.394 179.434,264.061 181,263.5C 182.101,265.394 183.434,266.061 185,265.5C 186.634,267.062 188.134,268.729 189.5,270.5C 187.863,274.118 185.863,277.451 183.5,280.5C 182.746,278.495 181.579,277.828 180,278.5C 179.779,275.057 178.779,274.724 177,277.5C 175,275.5 173,273.5 171,271.5C 169.568,273.931 168.068,273.931 166.5,271.5C 168.332,267.164 170.665,263.164 173.5,259.5 Z"/></g>
<g><path style="opacity:1" fill="#ffae53" d="M 220.5,258.5 C 221.482,261.763 222.149,265.097 222.5,268.5C 216.986,269.726 211.486,271.059 206,272.5C 204.97,272.836 204.47,273.503 204.5,274.5C 203.21,271.358 202.21,268.025 201.5,264.5C 202.622,263.053 204.122,262.053 206,261.5C 206.333,261.833 206.667,262.167 207,262.5C 211.437,260.062 215.937,258.728 220.5,258.5 Z"/></g>
<g><path style="opacity:1" fill="#ffd95a" d="M 121.5,267.5 C 123.017,267.511 124.184,268.177 125,269.5C 125.667,268.833 126.333,268.167 127,267.5C 129,269.5 131,271.5 133,273.5C 134.085,271.343 135.251,271.176 136.5,273C 136.167,274 135.833,275 135.5,276C 136.749,277.824 137.915,277.657 139,275.5C 141.755,278.083 144.255,280.749 146.5,283.5C 139.941,298.858 130.108,301.525 117,291.5C 114.107,286.686 113.774,281.686 116,276.5C 117.844,273.472 119.678,270.472 121.5,267.5 Z"/></g>
<g><path style="opacity:1" fill="#ffd95b" d="M 166.5,271.5 C 168.068,273.931 169.568,273.931 171,271.5C 173,273.5 175,275.5 177,277.5C 178.779,274.724 179.779,275.057 180,278.5C 181.579,277.828 182.746,278.495 183.5,280.5C 181.768,287.066 177.601,291.066 171,292.5C 163.478,290.797 160.478,286.13 162,278.5C 163.026,275.761 164.526,273.428 166.5,271.5 Z"/></g>
<g><path style="opacity:1" fill="#ff9d51" d="M 222.5,268.5 C 224.267,272.908 224.767,277.574 224,282.5C 220.608,288.467 215.774,289.967 209.5,287C 206.374,283.463 204.707,279.297 204.5,274.5C 204.47,273.503 204.97,272.836 206,272.5C 211.486,271.059 216.986,269.726 222.5,268.5 Z"/></g>
<g><path style="opacity:1" fill="#ff9350" d="M 123.5,338.5 C 125.279,336.656 127.612,335.99 130.5,336.5C 132.823,339.967 135.489,340.3 138.5,337.5C 134.126,335.438 129.626,333.438 125,331.5C 121.773,322.968 124.773,318.635 134,318.5C 138.296,318.317 141.962,319.65 145,322.5C 145.49,323.793 145.657,325.127 145.5,326.5C 141.599,326.755 137.932,326.088 134.5,324.5C 133.5,324.833 132.5,325.167 131.5,325.5C 136.332,327.653 141.166,329.987 146,332.5C 147.098,336.505 146.265,340.005 143.5,343C 138.589,344.492 133.589,344.826 128.5,344C 125.921,342.924 124.254,341.091 123.5,338.5 Z"/></g>
<g><path style="opacity:1" fill="#ffb98d" d="M 173.5,325.5 C 173.5,323.5 173.5,321.5 173.5,319.5C 165.5,319.5 157.5,319.5 149.5,319.5C 149.5,321.5 149.5,323.5 149.5,325.5C 148.532,323.393 148.198,321.059 148.5,318.5C 157.167,318.5 165.833,318.5 174.5,318.5C 174.802,321.059 174.468,323.393 173.5,325.5 Z"/></g>
<g><path style="opacity:1" fill="#ff9453" d="M 213.5,318.5 C 220.81,317.215 226.976,319.215 232,324.5C 235.867,340.303 229.7,346.803 213.5,344C 205.261,339.041 203.428,332.207 208,323.5C 209.73,321.598 211.563,319.931 213.5,318.5 Z"/></g>
<g><path style="opacity:1" fill="#ff9351" d="M 111.5,342.5 C 110.306,341.223 108.64,340.556 106.5,340.5C 104.631,340.507 102.964,340.84 101.5,341.5C 101.586,342.496 101.252,343.329 100.5,344C 97.7728,344.818 95.1062,344.652 92.5,343.5C 95.5,335.5 98.5,327.5 101.5,319.5C 104.833,318.167 108.167,318.167 111.5,319.5C 114.5,327.5 117.5,335.5 120.5,343.5C 119,343.833 117.5,344.167 116,344.5C 114.014,344.431 112.514,343.765 111.5,342.5 Z"/></g>
<g><path style="opacity:1" fill="#ff914d" d="M 173.5,325.5 C 170.833,325.5 168.167,325.5 165.5,325.5C 165.5,331.833 165.5,338.167 165.5,344.5C 162.833,344.5 160.167,344.5 157.5,344.5C 157.5,338.167 157.5,331.833 157.5,325.5C 154.833,325.5 152.167,325.5 149.5,325.5C 149.5,323.5 149.5,321.5 149.5,319.5C 157.5,319.5 165.5,319.5 173.5,319.5C 173.5,321.5 173.5,323.5 173.5,325.5 Z"/></g>
<g><path style="opacity:1" fill="#ffb07e" d="M 195.5,319.5 C 189.833,319.5 184.167,319.5 178.5,319.5C 178.5,327.833 178.5,336.167 178.5,344.5C 177.507,336.016 177.174,327.349 177.5,318.5C 183.69,318.177 189.69,318.51 195.5,319.5 Z"/></g>
<g><path style="opacity:1" fill="#ff924f" d="M 195.5,319.5 C 200.553,320.39 202.72,323.39 202,328.5C 200.692,330.641 199.192,332.641 197.5,334.5C 198.913,337.661 200.58,340.661 202.5,343.5C 199.554,344.655 196.554,344.821 193.5,344C 192.478,341.455 191.312,338.955 190,336.5C 188.644,335.62 187.144,335.286 185.5,335.5C 185.5,338.5 185.5,341.5 185.5,344.5C 183.167,344.5 180.833,344.5 178.5,344.5C 178.5,336.167 178.5,327.833 178.5,319.5C 184.167,319.5 189.833,319.5 195.5,319.5 Z"/></g>
<g><path style="opacity:1" fill="#ff9351" d="M 238.5,344.5 C 238.5,336.167 238.5,327.833 238.5,319.5C 240.833,319.5 243.167,319.5 245.5,319.5C 245.18,322.898 245.513,326.232 246.5,329.5C 247.107,329.376 247.44,329.043 247.5,328.5C 250.04,325.272 252.707,322.105 255.5,319C 258.833,318.333 262.167,318.333 265.5,319C 262.618,322.593 259.618,326.093 256.5,329.5C 259.625,334.249 262.625,339.083 265.5,344C 262.118,344.824 258.784,344.657 255.5,343.5C 251.158,332.844 248.158,333.177 246.5,344.5C 243.833,344.5 241.167,344.5 238.5,344.5 Z"/></g>
<g><path style="opacity:1" fill="#ffb88d" d="M 247.5,328.5 C 247.44,329.043 247.107,329.376 246.5,329.5C 245.513,326.232 245.18,322.898 245.5,319.5C 243.167,319.5 240.833,319.5 238.5,319.5C 238.5,327.833 238.5,336.167 238.5,344.5C 237.507,336.016 237.174,327.349 237.5,318.5C 240.5,318.5 243.5,318.5 246.5,318.5C 246.187,322.042 246.521,325.375 247.5,328.5 Z"/></g>
<g><path style="opacity:1" fill="#ff924e" d="M 286.5,318.5 C 289.167,318.5 291.833,318.5 294.5,318.5C 294.5,327.167 294.5,335.833 294.5,344.5C 291.833,344.5 289.167,344.5 286.5,344.5C 286.5,341.167 286.5,337.833 286.5,334.5C 283.5,334.5 280.5,334.5 277.5,334.5C 277.5,337.833 277.5,341.167 277.5,344.5C 274.833,344.5 272.167,344.5 269.5,344.5C 269.5,336.167 269.5,327.833 269.5,319.5C 271.833,319.5 274.167,319.5 276.5,319.5C 276.19,322.713 276.523,325.713 277.5,328.5C 280.5,328.5 283.5,328.5 286.5,328.5C 286.5,325.167 286.5,321.833 286.5,318.5 Z"/></g>
<g><path style="opacity:1" fill="#ffb78b" d="M 277.5,327.5 C 277.5,327.833 277.5,328.167 277.5,328.5C 276.523,325.713 276.19,322.713 276.5,319.5C 274.167,319.5 271.833,319.5 269.5,319.5C 269.5,327.833 269.5,336.167 269.5,344.5C 268.507,336.016 268.174,327.349 268.5,318.5C 271.5,318.5 274.5,318.5 277.5,318.5C 277.5,321.5 277.5,324.5 277.5,327.5 Z"/></g>
<g><path style="opacity:1" fill="#ff9452" d="M 307.5,318.5 C 310.777,318.216 313.943,318.549 317,319.5C 320.542,327.625 323.375,335.959 325.5,344.5C 322.753,344.813 320.086,344.48 317.5,343.5C 316.372,341.444 314.538,340.444 312,340.5C 308.406,339.717 306.573,341.05 306.5,344.5C 303.833,344.5 301.167,344.5 298.5,344.5C 300.938,335.627 303.938,326.961 307.5,318.5 Z"/></g>
<g><path style="opacity:1" fill="#ff924f" d="M 329.5,318.5 C 331.857,318.337 334.19,318.503 336.5,319C 340,323.167 343.5,327.333 347,331.5C 347.499,327.179 347.666,322.846 347.5,318.5C 349.833,318.5 352.167,318.5 354.5,318.5C 354.5,327.167 354.5,335.833 354.5,344.5C 352.143,344.663 349.81,344.497 347.5,344C 344.117,340.072 340.617,336.239 337,332.5C 336.501,336.486 336.334,340.486 336.5,344.5C 334.167,344.5 331.833,344.5 329.5,344.5C 329.5,335.833 329.5,327.167 329.5,318.5 Z"/></g>
<g><path style="opacity:1" fill="#ff9452" d="M 367.5,318.5 C 370.777,318.216 373.943,318.549 377,319.5C 380.542,327.625 383.375,335.959 385.5,344.5C 382.753,344.813 380.086,344.48 377.5,343.5C 376.372,341.444 374.538,340.444 372,340.5C 368.406,339.717 366.573,341.05 366.5,344.5C 363.833,344.5 361.167,344.5 358.5,344.5C 360.938,335.627 363.938,326.961 367.5,318.5 Z"/></g>
<g><path style="opacity:1" fill="#ff9351" d="M 389.5,318.5 C 392.167,318.5 394.833,318.5 397.5,318.5C 397.5,324.833 397.5,331.167 397.5,337.5C 401.833,337.5 406.167,337.5 410.5,337.5C 410.5,339.833 410.5,342.167 410.5,344.5C 403.5,344.5 396.5,344.5 389.5,344.5C 389.5,335.833 389.5,327.167 389.5,318.5 Z"/></g>
<g><path style="opacity:1" fill="#fff5ef" d="M 185.5,324.5 C 187.857,324.337 190.19,324.503 192.5,325C 193.833,326.333 193.833,327.667 192.5,329C 190.19,329.497 187.857,329.663 185.5,329.5C 185.5,327.833 185.5,326.167 185.5,324.5 Z"/></g>
<g><path style="opacity:1" fill="#fffcfa" d="M 216.5,324.5 C 219.365,324.055 221.865,324.722 224,326.5C 224.667,329.833 224.667,333.167 224,336.5C 221,339.167 218,339.167 215,336.5C 213.994,332.198 214.494,328.198 216.5,324.5 Z"/></g>
<g><path style="opacity:1" fill="#ffe0ce" d="M 286.5,318.5 C 286.5,321.833 286.5,325.167 286.5,328.5C 283.5,328.5 280.5,328.5 277.5,328.5C 277.5,328.167 277.5,327.833 277.5,327.5C 280.167,327.5 282.833,327.5 285.5,327.5C 285.19,324.287 285.523,321.287 286.5,318.5 Z"/></g>
<g><path style="opacity:1" fill="#ffefe5" d="M 311.5,326.5 C 313.253,329.146 314.253,332.146 314.5,335.5C 312.833,335.5 311.167,335.5 309.5,335.5C 309.756,332.402 310.422,329.402 311.5,326.5 Z"/></g>
<g><path style="opacity:1" fill="#ffefe5" d="M 371.5,326.5 C 373.253,329.146 374.253,332.146 374.5,335.5C 372.833,335.5 371.167,335.5 369.5,335.5C 369.756,332.402 370.422,329.402 371.5,326.5 Z"/></g>
<g><path style="opacity:1" fill="#ffe9dc" d="M 105.5,326.5 C 107.416,328.669 108.75,331.335 109.5,334.5C 107.5,335.833 105.5,335.833 103.5,334.5C 104.482,331.904 105.149,329.238 105.5,326.5 Z"/></g>
<g><path style="opacity:1" fill="#ffb689" d="M 130.5,336.5 C 127.612,335.99 125.279,336.656 123.5,338.5C 122.596,337.791 122.263,336.791 122.5,335.5C 125.385,335.194 128.052,335.527 130.5,336.5 Z"/></g>
<g><path style="opacity:1" fill="#ffd1b5" d="M 101.5,341.5 C 102.964,340.84 104.631,340.507 106.5,340.5C 108.64,340.556 110.306,341.223 111.5,342.5C 108.272,341.586 104.939,341.253 101.5,341.5 Z"/></g>
</svg>
