<?xml version="1.0" encoding="UTF-8"?>
<!DOCTYPE svg PUBLIC "-//W3C//DTD SVG 1.1//EN" "http://www.w3.org/Graphics/SVG/1.1/DTD/svg11.dtd">
<svg xmlns="http://www.w3.org/2000/svg" version="1.1" width="500px" height="500px" style="shape-rendering:geometricPrecision; text-rendering:geometricPrecision; image-rendering:optimizeQuality; fill-rule:evenodd; clip-rule:evenodd" xmlns:xlink="http://www.w3.org/1999/xlink">
<g><path style="opacity:1" fill="#fb9850" d="M 231.5,143.5 C 229.054,144.965 227.054,144.465 225.5,142C 227.706,140.75 229.039,138.916 229.5,136.5C 227.516,136.383 225.85,137.05 224.5,138.5C 220.502,137.163 217.168,134.83 214.5,131.5C 213.319,129.865 213.319,128.198 214.5,126.5C 212.944,124.299 211.777,124.299 211,126.5C 209.991,124.975 209.491,123.308 209.5,121.5C 211.782,115.111 215.448,109.611 220.5,105C 230.612,100.704 238.278,103.37 243.5,113C 244.536,116.121 244.703,119.287 244,122.5C 240.311,129.894 236.144,136.894 231.5,143.5 Z"/></g>
<g><path style="opacity:1" fill="#fda050" d="M 209.5,121.5 C 209.491,123.308 209.991,124.975 211,126.5C 211.777,124.299 212.944,124.299 214.5,126.5C 213.319,128.198 213.319,129.865 214.5,131.5C 217.168,134.83 220.502,137.163 224.5,138.5C 225.85,137.05 227.516,136.383 229.5,136.5C 229.039,138.916 227.706,140.75 225.5,142C 227.054,144.465 229.054,144.965 231.5,143.5C 228.89,148.767 225.89,153.767 222.5,158.5C 220.618,157.763 219.952,156.596 220.5,155C 221.833,154.667 223.167,154.333 224.5,154C 222.193,153.221 220.193,153.721 218.5,155.5C 217.289,154.726 217.289,153.893 218.5,153C 214.458,151.23 210.625,151.73 207,154.5C 205.065,151.07 203.899,147.403 203.5,143.5C 202.167,143.5 200.833,143.5 199.5,143.5C 199.162,145.854 198.662,148.187 198,150.5C 196.951,151.517 195.784,151.684 194.5,151C 195.799,148.345 196.799,145.178 197.5,141.5C 201,134.494 205,127.827 209.5,121.5 Z"/></g>
<g><path style="opacity:1" fill="#fdd35b" d="M 275.5,132.5 C 275.414,133.496 275.748,134.329 276.5,135C 275.552,135.483 274.552,135.649 273.5,135.5C 273.905,137.65 274.405,139.65 275,141.5C 274.667,141.167 274.333,140.833 274,140.5C 272.266,141.249 270.433,141.749 268.5,142C 264.803,145.762 260.637,147.928 256,148.5C 252.887,150.058 252.72,151.891 255.5,154C 254.906,154.464 254.239,154.631 253.5,154.5C 244.027,140.115 247.527,130.448 264,125.5C 267.367,126.133 270.533,127.3 273.5,129C 274.823,129.816 275.489,130.983 275.5,132.5 Z"/></g>
<g><path style="opacity:1" fill="#fda651" d="M 197.5,141.5 C 196.799,145.178 195.799,148.345 194.5,151C 195.784,151.684 196.951,151.517 198,150.5C 198.662,148.187 199.162,145.854 199.5,143.5C 200.833,143.5 202.167,143.5 203.5,143.5C 203.899,147.403 205.065,151.07 207,154.5C 210.625,151.73 214.458,151.23 218.5,153C 217.289,153.893 217.289,154.726 218.5,155.5C 220.193,153.721 222.193,153.221 224.5,154C 223.167,154.333 221.833,154.667 220.5,155C 219.952,156.596 220.618,157.763 222.5,158.5C 221.5,158.5 220.5,158.5 219.5,158.5C 219.401,161.63 218.234,164.296 216,166.5C 214.354,165.221 213.187,163.555 212.5,161.5C 208.805,162.908 207.138,165.574 207.5,169.5C 202.505,168.013 198.838,164.847 196.5,160C 194.299,159.175 192.466,159.675 191,161.5C 190.667,160.5 190.333,159.5 190,158.5C 188.989,159.337 187.822,159.67 186.5,159.5C 189.668,153.158 193.335,147.158 197.5,141.5 Z"/></g>
<g><path style="opacity:1" fill="#fdc557" d="M 275.5,132.5 C 281.332,140.824 286.665,149.491 291.5,158.5C 289.518,157.509 287.518,156.509 285.5,155.5C 286.246,154.264 286.579,152.93 286.5,151.5C 285.178,151.67 284.011,151.337 283,150.5C 282.167,151.5 281.333,152.5 280.5,153.5C 279.575,152.359 278.741,152.359 278,153.5C 277.251,154.635 277.417,155.635 278.5,156.5C 281.439,157.207 281.939,158.54 280,160.5C 278.326,159.324 276.826,157.99 275.5,156.5C 274.614,157.325 274.281,158.325 274.5,159.5C 272.5,159.5 270.5,159.5 268.5,159.5C 268.796,162.917 269.796,166.084 271.5,169C 271.167,169.833 270.833,170.667 270.5,171.5C 269.145,166.582 267.311,166.582 265,171.5C 264.617,170.944 264.117,170.611 263.5,170.5C 259.68,165.539 256.347,160.206 253.5,154.5C 254.239,154.631 254.906,154.464 255.5,154C 252.72,151.891 252.887,150.058 256,148.5C 260.637,147.928 264.803,145.762 268.5,142C 270.433,141.749 272.266,141.249 274,140.5C 274.333,140.833 274.667,141.167 275,141.5C 274.405,139.65 273.905,137.65 273.5,135.5C 274.552,135.649 275.552,135.483 276.5,135C 275.748,134.329 275.414,133.496 275.5,132.5 Z"/></g>
<g><path style="opacity:1" fill="#fcb455" d="M 291.5,158.5 C 294.89,163.233 297.89,168.233 300.5,173.5C 299.333,172.185 297.833,171.519 296,171.5C 293.202,172.599 290.369,173.599 287.5,174.5C 285.984,176.391 284.65,178.391 283.5,180.5C 281.827,178.914 279.827,178.247 277.5,178.5C 276.535,182.773 275.869,187.106 275.5,191.5C 271.251,184.671 267.251,177.671 263.5,170.5C 264.117,170.611 264.617,170.944 265,171.5C 267.311,166.582 269.145,166.582 270.5,171.5C 270.833,170.667 271.167,169.833 271.5,169C 269.796,166.084 268.796,162.917 268.5,159.5C 270.5,159.5 272.5,159.5 274.5,159.5C 274.281,158.325 274.614,157.325 275.5,156.5C 276.826,157.99 278.326,159.324 280,160.5C 281.939,158.54 281.439,157.207 278.5,156.5C 277.417,155.635 277.251,154.635 278,153.5C 278.741,152.359 279.575,152.359 280.5,153.5C 281.333,152.5 282.167,151.5 283,150.5C 284.011,151.337 285.178,151.67 286.5,151.5C 286.579,152.93 286.246,154.264 285.5,155.5C 287.518,156.509 289.518,157.509 291.5,158.5 Z"/></g>
<g><path style="opacity:1" fill="#fc974e" d="M 244.5,178.5 C 242.776,180.866 240.442,182.533 237.5,183.5C 236.5,183.333 235.5,183.167 234.5,183C 237.069,181.122 236.736,179.622 233.5,178.5C 231.306,178.358 228.973,178.691 226.5,179.5C 226.276,174.941 226.942,170.608 228.5,166.5C 230.851,160.657 235.184,158.491 241.5,160C 247.277,162.721 249.444,167.221 248,173.5C 247.303,175.584 246.136,177.251 244.5,178.5 Z"/></g>
<g><path style="opacity:1" fill="#fdaf53" d="M 222.5,158.5 C 212.556,175.768 202.223,192.768 191.5,209.5C 192.76,206.156 193.594,202.822 194,199.5C 191.731,197.161 190.231,197.828 189.5,201.5C 188.026,200.564 187.026,199.23 186.5,197.5C 184.955,196.548 183.288,196.215 181.5,196.5C 180.784,193.04 178.617,191.04 175,190.5C 174.346,191.696 173.846,191.696 173.5,190.5C 176.519,189.453 176.852,187.453 174.5,184.5C 173.719,185.729 173.219,187.062 173,188.5C 172.25,187.874 171.416,187.374 170.5,187C 171.252,186.329 171.586,185.496 171.5,184.5C 175.749,175.661 180.749,167.328 186.5,159.5C 187.822,159.67 188.989,159.337 190,158.5C 190.333,159.5 190.667,160.5 191,161.5C 192.466,159.675 194.299,159.175 196.5,160C 198.838,164.847 202.505,168.013 207.5,169.5C 207.138,165.574 208.805,162.908 212.5,161.5C 213.187,163.555 214.354,165.221 216,166.5C 218.234,164.296 219.401,161.63 219.5,158.5C 220.5,158.5 221.5,158.5 222.5,158.5 Z"/></g>
<g><path style="opacity:1" fill="#fda751" d="M 300.5,173.5 C 303.669,177.833 306.336,182.5 308.5,187.5C 306.815,186.816 305.815,185.483 305.5,183.5C 304.349,182.269 303.183,182.269 302,183.5C 301.667,182.833 301.333,182.167 301,181.5C 300.417,183.002 299.584,184.335 298.5,185.5C 293.816,188.195 289.149,190.862 284.5,193.5C 283.833,193.167 283.167,192.833 282.5,192.5C 281.353,194.765 281.186,197.098 282,199.5C 283.705,201.577 284.872,203.91 285.5,206.5C 281.436,202.053 278.102,197.053 275.5,191.5C 275.869,187.106 276.535,182.773 277.5,178.5C 279.827,178.247 281.827,178.914 283.5,180.5C 284.65,178.391 285.984,176.391 287.5,174.5C 290.369,173.599 293.202,172.599 296,171.5C 297.833,171.519 299.333,172.185 300.5,173.5 Z"/></g>
<g><path style="opacity:1" fill="#fba353" d="M 228.5,166.5 C 226.942,170.608 226.276,174.941 226.5,179.5C 228.973,178.691 231.306,178.358 233.5,178.5C 236.736,179.622 237.069,181.122 234.5,183C 235.5,183.167 236.5,183.333 237.5,183.5C 240.442,182.533 242.776,180.866 244.5,178.5C 239.254,189.333 233.254,199.666 226.5,209.5C 226.992,205.71 226.159,205.044 224,207.5C 221.872,204.176 221.039,200.509 221.5,196.5C 220.5,196.5 219.5,196.5 218.5,196.5C 218.456,199.316 217.456,201.649 215.5,203.5C 214.914,203.291 214.414,202.957 214,202.5C 213.814,200.1 213.314,197.766 212.5,195.5C 211.817,195.863 211.15,196.196 210.5,196.5C 216,186.161 222,176.161 228.5,166.5 Z"/></g>
<g><path style="opacity:1" fill="#fc9a4f" d="M 308.5,187.5 C 311.571,194.157 310.571,200.324 305.5,206C 298.888,210.402 292.222,210.569 285.5,206.5C 284.872,203.91 283.705,201.577 282,199.5C 281.186,197.098 281.353,194.765 282.5,192.5C 283.167,192.833 283.833,193.167 284.5,193.5C 289.149,190.862 293.816,188.195 298.5,185.5C 299.584,184.335 300.417,183.002 301,181.5C 301.333,182.167 301.667,182.833 302,183.5C 303.183,182.269 304.349,182.269 305.5,183.5C 305.815,185.483 306.815,186.816 308.5,187.5 Z"/></g>
<g><path style="opacity:1" fill="#fdb855" d="M 171.5,184.5 C 171.586,185.496 171.252,186.329 170.5,187C 171.416,187.374 172.25,187.874 173,188.5C 173.219,187.062 173.719,185.729 174.5,184.5C 176.852,187.453 176.519,189.453 173.5,190.5C 173.846,191.696 174.346,191.696 175,190.5C 178.617,191.04 180.784,193.04 181.5,196.5C 183.288,196.215 184.955,196.548 186.5,197.5C 187.026,199.23 188.026,200.564 189.5,201.5C 190.231,197.828 191.731,197.161 194,199.5C 193.594,202.822 192.76,206.156 191.5,209.5C 188.619,216.033 184.953,222.033 180.5,227.5C 182.855,223.291 184.522,218.791 185.5,214C 184.101,213.405 182.768,213.572 181.5,214.5C 180.614,213.675 180.281,212.675 180.5,211.5C 176.966,211.968 173.966,210.968 171.5,208.5C 171.977,207.522 172.643,206.689 173.5,206C 173.167,205.833 172.833,205.667 172.5,205.5C 171.15,206.95 169.484,207.617 167.5,207.5C 167.5,206.5 167.5,205.5 167.5,204.5C 164.001,204.259 163.668,205.092 166.5,207C 165.747,208.487 164.914,208.654 164,207.5C 162.493,204.18 162.327,200.847 163.5,197.5C 165.418,192.657 168.084,188.323 171.5,184.5 Z"/></g>
<g><path style="opacity:1" fill="#fdae52" d="M 226.5,209.5 C 225.5,211.5 224.5,213.5 223.5,215.5C 221.536,219.634 218.87,223.301 215.5,226.5C 214.417,226.539 213.417,226.873 212.5,227.5C 211.108,226.395 209.941,225.061 209,223.5C 208.667,223.833 208.333,224.167 208,224.5C 206.491,223.91 204.991,223.244 203.5,222.5C 204.929,220.669 205.429,218.669 205,216.5C 203.506,217.747 202.006,217.747 200.5,216.5C 202.113,216.968 203.613,216.301 205,214.5C 205.175,211.843 205.008,209.176 204.5,206.5C 206,202.827 208,199.494 210.5,196.5C 211.15,196.196 211.817,195.863 212.5,195.5C 213.314,197.766 213.814,200.1 214,202.5C 214.414,202.957 214.914,203.291 215.5,203.5C 217.456,201.649 218.456,199.316 218.5,196.5C 219.5,196.5 220.5,196.5 221.5,196.5C 221.039,200.509 221.872,204.176 224,207.5C 226.159,205.044 226.992,205.71 226.5,209.5 Z"/></g>
<g><path style="opacity:1" fill="#fdbe54" d="M 163.5,197.5 C 162.327,200.847 162.493,204.18 164,207.5C 164.914,208.654 165.747,208.487 166.5,207C 163.668,205.092 164.001,204.259 167.5,204.5C 167.5,205.5 167.5,206.5 167.5,207.5C 169.484,207.617 171.15,206.95 172.5,205.5C 172.833,205.667 173.167,205.833 173.5,206C 172.643,206.689 171.977,207.522 171.5,208.5C 173.966,210.968 176.966,211.968 180.5,211.5C 180.281,212.675 180.614,213.675 181.5,214.5C 182.768,213.572 184.101,213.405 185.5,214C 184.522,218.791 182.855,223.291 180.5,227.5C 180.25,229.674 179.25,231.341 177.5,232.5C 176.127,232.657 174.793,232.49 173.5,232C 173.957,231.586 174.291,231.086 174.5,230.5C 172.376,229.542 170.376,228.375 168.5,227C 167.663,225.989 167.33,224.822 167.5,223.5C 164.428,223.813 161.595,223.146 159,221.5C 158.05,222.022 157.216,222.689 156.5,223.5C 156.167,223.167 155.833,222.833 155.5,222.5C 157.917,220.506 157.917,218.673 155.5,217C 157.466,212.725 158.799,208.558 159.5,204.5C 160.079,201.669 161.412,199.336 163.5,197.5 Z"/></g>
<g><path style="opacity:1" fill="#fb9e52" d="M 242.5,234.5 C 242.5,233.167 242.5,231.833 242.5,230.5C 240.158,230.496 238.158,229.663 236.5,228C 237.91,227.632 238.91,226.799 239.5,225.5C 238.263,224.719 237.263,223.719 236.5,222.5C 237.309,220.929 237.643,219.262 237.5,217.5C 239.429,217.769 241.095,217.269 242.5,216C 240.881,215.764 239.881,214.931 239.5,213.5C 244.489,212.778 249.489,212.612 254.5,213C 260.109,216.277 261.942,221.11 260,227.5C 259.215,229.286 258.049,230.786 256.5,232C 251.937,233.475 247.27,234.308 242.5,234.5 Z"/></g>
<g><path style="opacity:1" fill="#fdc456" d="M 159.5,204.5 C 158.799,208.558 157.466,212.725 155.5,217C 157.917,218.673 157.917,220.506 155.5,222.5C 155.833,222.833 156.167,223.167 156.5,223.5C 157.216,222.689 158.05,222.022 159,221.5C 161.595,223.146 164.428,223.813 167.5,223.5C 167.33,224.822 167.663,225.989 168.5,227C 170.376,228.375 172.376,229.542 174.5,230.5C 174.291,231.086 173.957,231.586 173.5,232C 174.793,232.49 176.127,232.657 177.5,232.5C 175.251,238.005 172.251,243.005 168.5,247.5C 167.228,248.667 165.894,249.501 164.5,250C 163.219,247.573 162.219,245.073 161.5,242.5C 158.126,243.514 154.792,243.181 151.5,241.5C 152.052,239.997 152.052,238.331 151.5,236.5C 149.048,236.624 147.048,237.624 145.5,239.5C 141.594,238.453 140.594,236.12 142.5,232.5C 147.38,222.635 153.047,213.302 159.5,204.5 Z"/></g>
<g><path style="opacity:1" fill="#fcb354" d="M 239.5,213.5 C 239.881,214.931 240.881,215.764 242.5,216C 241.095,217.269 239.429,217.769 237.5,217.5C 237.643,219.262 237.309,220.929 236.5,222.5C 237.263,223.719 238.263,224.719 239.5,225.5C 238.91,226.799 237.91,227.632 236.5,228C 238.158,229.663 240.158,230.496 242.5,230.5C 242.5,231.833 242.5,233.167 242.5,234.5C 239.373,235.581 236.04,236.247 232.5,236.5C 226.132,235.542 225.965,233.875 232,231.5C 233.162,232.187 234.328,232.353 235.5,232C 234.315,230.647 232.981,229.48 231.5,228.5C 232.376,227.749 233.376,227.249 234.5,227C 232.5,225.667 230.5,224.333 228.5,223C 230.937,221.721 231.437,220.221 230,218.5C 229.667,218.833 229.333,219.167 229,219.5C 228.59,218.099 228.09,216.766 227.5,215.5C 231.574,215.218 235.574,214.552 239.5,213.5 Z"/></g>
<g><path style="opacity:1" fill="#fdbb54" d="M 204.5,206.5 C 205.008,209.176 205.175,211.843 205,214.5C 203.613,216.301 202.113,216.968 200.5,216.5C 202.006,217.747 203.506,217.747 205,216.5C 205.429,218.669 204.929,220.669 203.5,222.5C 204.991,223.244 206.491,223.91 208,224.5C 208.333,224.167 208.667,223.833 209,223.5C 209.941,225.061 211.108,226.395 212.5,227.5C 213.417,226.873 214.417,226.539 215.5,226.5C 212.354,233.445 208.188,239.778 203,245.5C 199.68,243.935 196.18,242.602 192.5,241.5C 191.749,240.624 191.249,239.624 191,238.5C 190.667,238.833 190.333,239.167 190,239.5C 189.28,237.944 188.113,236.944 186.5,236.5C 192,226.161 198,216.161 204.5,206.5 Z"/></g>
<g><path style="opacity:1" fill="#fdcb58" d="M 142.5,232.5 C 140.594,236.12 141.594,238.453 145.5,239.5C 147.048,237.624 149.048,236.624 151.5,236.5C 152.052,238.331 152.052,239.997 151.5,241.5C 154.792,243.181 158.126,243.514 161.5,242.5C 162.219,245.073 163.219,247.573 164.5,250C 165.894,249.501 167.228,248.667 168.5,247.5C 164.335,255.836 159.668,263.836 154.5,271.5C 154.773,269.549 154.107,268.049 152.5,267C 153.572,265.716 154.905,265.383 156.5,266C 157.337,264.989 157.67,263.822 157.5,262.5C 156.167,262.5 154.833,262.5 153.5,262.5C 153.587,259.402 153.087,259.068 152,261.5C 150.381,262.083 148.548,262.083 146.5,261.5C 145.833,259.5 145.167,257.5 144.5,255.5C 143.833,255.833 143.167,256.167 142.5,256.5C 141.646,255.052 140.646,253.719 139.5,252.5C 140.326,251.549 140.492,250.549 140,249.5C 137.631,250.927 137.131,252.761 138.5,255C 136.884,254.628 135.217,253.961 133.5,253C 134.863,251.055 135.697,248.888 136,246.5C 140.474,247.765 140.641,247.099 136.5,244.5C 135.817,244.863 135.15,245.196 134.5,245.5C 136.418,240.657 139.084,236.323 142.5,232.5 Z"/></g>
<g><path style="opacity:1" fill="#fdc456" d="M 223.5,215.5 C 224.632,216.354 225.965,216.354 227.5,215.5C 228.09,216.766 228.59,218.099 229,219.5C 229.333,219.167 229.667,218.833 230,218.5C 231.437,220.221 230.937,221.721 228.5,223C 230.5,224.333 232.5,225.667 234.5,227C 233.376,227.249 232.376,227.749 231.5,228.5C 232.981,229.48 234.315,230.647 235.5,232C 234.328,232.353 233.162,232.187 232,231.5C 225.965,233.875 226.132,235.542 232.5,236.5C 227.485,237.392 222.485,238.392 217.5,239.5C 216.859,243.629 217.525,247.629 219.5,251.5C 217.616,251.712 216.283,252.712 215.5,254.5C 214.416,253.335 213.583,252.002 213,250.5C 211.983,252.376 211.149,254.376 210.5,256.5C 208.844,254.978 207.677,255.311 207,257.5C 204.979,254.714 203.479,255.047 202.5,258.5C 201.833,257.5 201.167,256.5 200.5,255.5C 199.893,255.624 199.56,255.957 199.5,256.5C 198.448,256.649 197.448,256.483 196.5,256C 194.416,254.252 192.416,252.418 190.5,250.5C 189.833,252.167 189.167,253.833 188.5,255.5C 188.167,255.333 187.833,255.167 187.5,255C 185.481,251.945 183.648,248.778 182,245.5C 181.574,249.224 179.741,251.89 176.5,253.5C 179.08,247.332 182.414,241.665 186.5,236.5C 188.113,236.944 189.28,237.944 190,239.5C 190.333,239.167 190.667,238.833 191,238.5C 191.249,239.624 191.749,240.624 192.5,241.5C 196.18,242.602 199.68,243.935 203,245.5C 208.188,239.778 212.354,233.445 215.5,226.5C 218.87,223.301 221.536,219.634 223.5,215.5 Z"/></g>
<g><path style="opacity:1" fill="#fccc5a" d="M 199.5,256.5 C 199.5,257.167 199.167,257.5 198.5,257.5C 195.082,263.337 191.416,269.004 187.5,274.5C 186.404,271.208 187.071,268.208 189.5,265.5C 188.672,264.585 187.672,263.919 186.5,263.5C 184.5,265.833 182.5,268.167 180.5,270.5C 178.283,269.783 176.949,268.283 176.5,266C 178.201,264.14 179.201,261.973 179.5,259.5C 178.167,259.5 176.833,259.5 175.5,259.5C 175.309,262.983 174.643,266.316 173.5,269.5C 172.167,269.5 170.833,269.5 169.5,269.5C 169.649,270.552 169.483,271.552 169,272.5C 168.292,271.619 167.458,270.953 166.5,270.5C 169.08,264.332 172.414,258.665 176.5,253.5C 179.741,251.89 181.574,249.224 182,245.5C 183.648,248.778 185.481,251.945 187.5,255C 187.833,255.167 188.167,255.333 188.5,255.5C 189.167,253.833 189.833,252.167 190.5,250.5C 192.416,252.418 194.416,254.252 196.5,256C 197.448,256.483 198.448,256.649 199.5,256.5 Z"/></g>
<g><path style="opacity:1" fill="#fdb153" d="M 219.5,251.5 C 220.99,257.794 222.323,264.127 223.5,270.5C 222.417,270.539 221.417,270.873 220.5,271.5C 219.614,270.675 219.281,269.675 219.5,268.5C 216.791,268.555 214.791,269.222 213.5,270.5C 214.608,268.305 214.441,266.305 213,264.5C 211.92,266.553 211.086,268.72 210.5,271C 208.579,271.36 206.912,272.194 205.5,273.5C 204.735,272.388 203.735,271.721 202.5,271.5C 201.167,266.833 199.833,262.167 198.5,257.5C 199.167,257.5 199.5,257.167 199.5,256.5C 199.56,255.957 199.893,255.624 200.5,255.5C 201.167,256.5 201.833,257.5 202.5,258.5C 203.479,255.047 204.979,254.714 207,257.5C 207.677,255.311 208.844,254.978 210.5,256.5C 211.149,254.376 211.983,252.376 213,250.5C 213.583,252.002 214.416,253.335 215.5,254.5C 216.283,252.712 217.616,251.712 219.5,251.5 Z"/></g>
<g><path style="opacity:1" fill="#fdd05a" d="M 154.5,271.5 C 152.863,275.118 150.863,278.451 148.5,281.5C 148.337,279.143 148.503,276.81 149,274.5C 149.763,277.063 150.263,277.063 150.5,274.5C 150.072,270.774 148.739,267.441 146.5,264.5C 145.637,266.771 145.637,269.105 146.5,271.5C 141.667,271.773 136.667,271.773 131.5,271.5C 131.5,270.167 131.5,268.833 131.5,267.5C 129.738,267.643 128.071,267.309 126.5,266.5C 125.522,266.977 124.689,267.643 124,268.5C 123.667,267.833 123.333,267.167 123,266.5C 122.781,267.938 122.281,269.271 121.5,270.5C 119.667,272.149 118,273.816 116.5,275.5C 122,265.161 128,255.161 134.5,245.5C 135.15,245.196 135.817,244.863 136.5,244.5C 140.641,247.099 140.474,247.765 136,246.5C 135.697,248.888 134.863,251.055 133.5,253C 135.217,253.961 136.884,254.628 138.5,255C 137.131,252.761 137.631,250.927 140,249.5C 140.492,250.549 140.326,251.549 139.5,252.5C 140.646,253.719 141.646,255.052 142.5,256.5C 143.167,256.167 143.833,255.833 144.5,255.5C 145.167,257.5 145.833,259.5 146.5,261.5C 148.548,262.083 150.381,262.083 152,261.5C 153.087,259.068 153.587,259.402 153.5,262.5C 154.833,262.5 156.167,262.5 157.5,262.5C 157.67,263.822 157.337,264.989 156.5,266C 154.905,265.383 153.572,265.716 152.5,267C 154.107,268.049 154.773,269.549 154.5,271.5 Z"/></g>
<g><path style="opacity:1" fill="#fdd85a" d="M 148.5,281.5 C 146.13,286.401 143.13,290.901 139.5,295C 129.098,301.182 120.931,299.016 115,288.5C 114.333,284.833 114.333,281.167 115,277.5C 115.278,276.584 115.778,275.918 116.5,275.5C 118,273.816 119.667,272.149 121.5,270.5C 122.281,269.271 122.781,267.938 123,266.5C 123.333,267.167 123.667,267.833 124,268.5C 124.689,267.643 125.522,266.977 126.5,266.5C 128.071,267.309 129.738,267.643 131.5,267.5C 131.5,268.833 131.5,270.167 131.5,271.5C 136.667,271.773 141.667,271.773 146.5,271.5C 145.637,269.105 145.637,266.771 146.5,264.5C 148.739,267.441 150.072,270.774 150.5,274.5C 150.263,277.063 149.763,277.063 149,274.5C 148.503,276.81 148.337,279.143 148.5,281.5 Z"/></g>
<g><path style="opacity:1" fill="#fdd559" d="M 187.5,274.5 C 185.434,278.966 183.1,283.299 180.5,287.5C 168.429,293.939 162.429,290.273 162.5,276.5C 163.351,274.118 164.684,272.118 166.5,270.5C 167.458,270.953 168.292,271.619 169,272.5C 169.483,271.552 169.649,270.552 169.5,269.5C 170.833,269.5 172.167,269.5 173.5,269.5C 174.643,266.316 175.309,262.983 175.5,259.5C 176.833,259.5 178.167,259.5 179.5,259.5C 179.201,261.973 178.201,264.14 176.5,266C 176.949,268.283 178.283,269.783 180.5,270.5C 182.5,268.167 184.5,265.833 186.5,263.5C 187.672,263.919 188.672,264.585 189.5,265.5C 187.071,268.208 186.404,271.208 187.5,274.5 Z"/></g>
<g><path style="opacity:1" fill="#fb9e50" d="M 223.5,270.5 C 228.513,283.306 224.179,289.14 210.5,288C 209.069,287.535 207.903,286.701 207,285.5C 204.882,281.027 203.382,276.36 202.5,271.5C 203.735,271.721 204.735,272.388 205.5,273.5C 206.912,272.194 208.579,271.36 210.5,271C 211.086,268.72 211.92,266.553 213,264.5C 214.441,266.305 214.608,268.305 213.5,270.5C 214.791,269.222 216.791,268.555 219.5,268.5C 219.281,269.675 219.614,270.675 220.5,271.5C 221.417,270.873 222.417,270.539 223.5,270.5 Z"/></g>
<g><path style="opacity:1" fill="#f5dd76" d="M 162.5,276.5 C 162.429,290.273 168.429,293.939 180.5,287.5C 176.497,292.484 171.497,293.651 165.5,291C 159.888,286.745 158.888,281.912 162.5,276.5 Z"/></g>
<g><path style="opacity:1" fill="#fb934e" d="M 177.5,318.5 C 184.175,318.334 190.842,318.5 197.5,319C 202.069,321.541 203.569,325.375 202,330.5C 200.647,331.685 199.48,333.019 198.5,334.5C 200.039,337.746 201.706,340.912 203.5,344C 200.179,345.438 196.846,345.605 193.5,344.5C 191.667,341.5 189.833,338.5 188,335.5C 186.608,338.278 186.108,341.278 186.5,344.5C 183.458,345.541 180.458,345.541 177.5,344.5C 177.5,335.833 177.5,327.167 177.5,318.5 Z M 186.5,325.5 C 195.833,326.5 195.833,327.5 186.5,328.5C 186.5,327.5 186.5,326.5 186.5,325.5 Z"/></g>
<g><path style="opacity:0.969" fill="#fa9550" d="M 268.5,318.5 C 271.518,318.335 274.518,318.502 277.5,319C 278.013,321.718 278.013,324.551 277.5,327.5C 280.167,327.5 282.833,327.5 285.5,327.5C 285.5,324.5 285.5,321.5 285.5,318.5C 288.833,318.5 292.167,318.5 295.5,318.5C 295.5,327.167 295.5,335.833 295.5,344.5C 292.143,345.627 288.809,345.627 285.5,344.5C 285.5,341.5 285.5,338.5 285.5,335.5C 282.833,335.5 280.167,335.5 277.5,335.5C 277.232,338.119 277.565,340.619 278.5,343C 277.667,343.833 276.833,344.667 276,345.5C 273.959,345.643 271.792,345.309 269.5,344.5C 268.502,335.859 268.169,327.192 268.5,318.5 Z"/></g>
<g><path style="opacity:0.99" fill="#ec9860" d="M 332.5,318.5 C 332.607,320.379 332.107,320.712 331,319.5C 330.5,327.827 330.334,336.16 330.5,344.5C 329.175,340.555 328.508,336.222 328.5,331.5C 328.833,327.167 329.167,322.833 329.5,318.5C 330.527,317.209 331.527,317.209 332.5,318.5 Z"/></g>
<g><path style="opacity:1" fill="#fb934e" d="M 332.5,318.5 C 334.199,318.34 335.866,318.506 337.5,319C 340.333,322.5 343.167,326 346,329.5C 346.499,325.848 346.665,322.182 346.5,318.5C 349.5,318.5 352.5,318.5 355.5,318.5C 355.5,327.167 355.5,335.833 355.5,344.5C 352.396,345.864 349.396,345.698 346.5,344C 343.784,340.739 340.951,337.572 338,334.5C 337.502,337.817 337.335,341.15 337.5,344.5C 335.09,345.438 332.756,345.438 330.5,344.5C 330.334,336.16 330.5,327.827 331,319.5C 332.107,320.712 332.607,320.379 332.5,318.5 Z"/></g>
<g><path style="opacity:0.98" fill="#fa934f" d="M 237.5,318.5 C 240.5,318.5 243.5,318.5 246.5,318.5C 246.335,321.518 246.502,324.518 247,327.5C 249.853,324.948 252.353,322.115 254.5,319C 258.5,318.333 262.5,318.333 266.5,319C 263.145,322.221 260.145,325.721 257.5,329.5C 260.124,334.585 263.124,339.418 266.5,344C 258.612,346.981 253.279,344.481 250.5,336.5C 247.15,338.494 245.65,341.494 246,345.5C 243.211,345.588 240.378,345.254 237.5,344.5C 237.5,335.833 237.5,327.167 237.5,318.5 Z"/></g>
<g><path style="opacity:1" fill="#fb964b" d="M 158.5,344.5 C 157.872,338.399 157.205,332.399 156.5,326.5C 149.5,328.167 146.833,325.5 148.5,318.5C 157.167,318.5 165.833,318.5 174.5,318.5C 174.5,320.833 174.5,323.167 174.5,325.5C 171.873,326.092 169.206,326.425 166.5,326.5C 166.5,332.5 166.5,338.5 166.5,344.5C 163.648,345.258 160.981,345.258 158.5,344.5 Z"/></g>
<g><path style="opacity:0.992" fill="#f9924f" d="M 138.5,327.5 C 147.595,329.862 149.595,335.029 144.5,343C 138.675,345.923 132.675,346.256 126.5,344C 123.679,341.859 122.346,339.025 122.5,335.5C 125.5,335.5 128.5,335.5 131.5,335.5C 122.73,333.029 120.73,327.862 125.5,320C 132.373,316.313 138.873,316.813 145,321.5C 146.128,323.345 146.628,325.345 146.5,327.5C 143.833,327.5 141.167,327.5 138.5,327.5 Z M 138.5,327.5 C 136.173,327.753 134.173,327.086 132.5,325.5C 135.211,324.011 137.211,324.678 138.5,327.5 Z M 131.5,335.5 C 133.696,335.565 135.696,336.232 137.5,337.5C 135.926,338.631 134.259,338.798 132.5,338C 131.748,337.329 131.414,336.496 131.5,335.5 Z"/></g>
<g><path style="opacity:0.997" fill="#ec975f" d="M 390.5,318.5 C 390.5,327.167 390.5,335.833 390.5,344.5C 389.175,340.555 388.508,336.222 388.5,331.5C 388.508,326.778 389.175,322.445 390.5,318.5 Z"/></g>
<g><path style="opacity:1" fill="#f99250" d="M 101.5,318.5 C 105.167,318.5 108.833,318.5 112.5,318.5C 115.001,327.17 118.001,335.67 121.5,344C 119.833,344.167 118.167,344.333 116.5,344.5C 112.806,344.421 109.473,343.421 106.5,341.5C 103.319,342.737 99.9853,343.737 96.5,344.5C 94.8333,344.333 93.1667,344.167 91.5,344C 94.9785,335.545 98.3118,327.045 101.5,318.5 Z M 105.5,329.5 C 107.085,330.474 108.085,331.974 108.5,334C 107.056,334.781 105.723,334.614 104.5,333.5C 105.246,332.264 105.579,330.93 105.5,329.5 Z"/></g>
<g><path style="opacity:1" fill="#fa944f" d="M 366.5,318.5 C 370.673,317.956 374.506,318.623 378,320.5C 380.833,328.167 383.667,335.833 386.5,343.5C 386.291,344.086 385.957,344.586 385.5,345C 383.167,345.667 380.833,345.667 378.5,345C 377.027,344.29 376.36,343.124 376.5,341.5C 373.5,341.5 370.5,341.5 367.5,341.5C 367.5,342.5 367.5,343.5 367.5,344.5C 363.971,346.118 360.638,345.784 357.5,343.5C 360.704,335.219 363.704,326.886 366.5,318.5 Z M 371.5,328.5 C 372.738,330.214 373.405,332.214 373.5,334.5C 372.5,334.5 371.5,334.5 370.5,334.5C 370.517,332.435 370.85,330.435 371.5,328.5 Z"/></g>
<g><path style="opacity:1" fill="#fb934d" d="M 306.5,318.5 C 310.673,317.956 314.506,318.623 318,320.5C 320.833,328.167 323.667,335.833 326.5,343.5C 323.667,345.535 320.667,345.868 317.5,344.5C 316.614,343.675 316.281,342.675 316.5,341.5C 313.5,341.5 310.5,341.5 307.5,341.5C 307.5,342.5 307.5,343.5 307.5,344.5C 305.738,344.357 304.071,344.691 302.5,345.5C 300.775,344.985 299.108,344.318 297.5,343.5C 300.704,335.219 303.704,326.886 306.5,318.5 Z M 311.5,328.5 C 312.738,330.214 313.405,332.214 313.5,334.5C 312.5,334.5 311.5,334.5 310.5,334.5C 310.833,332.5 311.167,330.5 311.5,328.5 Z"/></g>
<g><path style="opacity:0.204" fill="#dc9c71" d="M 156.5,326.5 C 157.205,332.399 157.872,338.399 158.5,344.5C 156.547,338.926 155.88,332.926 156.5,326.5 Z"/></g>
<g><path style="opacity:1" fill="#f9924f" d="M 217.5,317.5 C 233.472,319.272 237.806,327.439 230.5,342C 222.876,346.787 215.376,346.62 208,341.5C 205.124,335.647 204.79,329.647 207,323.5C 209.793,320.027 213.293,318.027 217.5,317.5 Z M 216.5,325.5 C 223.509,325.129 226.009,328.462 224,335.5C 220.477,339.701 217.477,339.368 215,334.5C 214.207,331.259 214.707,328.259 216.5,325.5 Z"/></g>
<g><path style="opacity:1" fill="#f89050" d="M 390.5,344.5 C 390.5,335.833 390.5,327.167 390.5,318.5C 392.856,318.316 395.523,318.316 398.5,318.5C 398.5,324.833 398.5,331.167 398.5,337.5C 402.833,337.5 407.167,337.5 411.5,337.5C 411.5,339.833 411.5,342.167 411.5,344.5C 404.5,344.5 397.5,344.5 390.5,344.5 Z"/></g>
</svg>
